<mxfile host="app.diagrams.net" modified="2022-06-17T12:57:58.654Z" agent="5.0 (Windows NT 10.0; Win64; x64) AppleWebKit/537.36 (KHTML, like Gecko) Chrome/100.0.4896.127 Safari/537.36" etag="uWchty9V8e1ZewTht9ip" version="20.0.1" type="github">
  <diagram name="Page-1" id="13e1069c-82ec-6db2-03f1-153e76fe0fe0">
    <mxGraphModel dx="1489" dy="801" grid="1" gridSize="10" guides="1" tooltips="1" connect="0" arrows="1" fold="1" page="1" pageScale="1" pageWidth="1100" pageHeight="850" background="none" math="0" shadow="0">
      <root>
        <mxCell id="0" />
        <mxCell id="1" parent="0" />
        <mxCell id="7baba1c4bc27f4b0-2" value="服务网关" style="shape=umlLifeline;perimeter=lifelinePerimeter;whiteSpace=wrap;html=1;container=1;collapsible=0;recursiveResize=0;outlineConnect=0;rounded=1;shadow=0;comic=0;labelBackgroundColor=none;strokeWidth=1;fontFamily=Verdana;fontSize=12;align=center;" parent="1" vertex="1">
          <mxGeometry x="240" y="80" width="100" height="580" as="geometry" />
        </mxCell>
        <mxCell id="KtjAfawkbh8S06eXO74y-8" value="" style="html=1;points=[];perimeter=orthogonalPerimeter;" vertex="1" parent="7baba1c4bc27f4b0-2">
          <mxGeometry x="45" y="100" width="10" height="200" as="geometry" />
        </mxCell>
        <mxCell id="KtjAfawkbh8S06eXO74y-10" value="权限认证" style="html=1;verticalAlign=bottom;endArrow=block;rounded=0;" edge="1" parent="7baba1c4bc27f4b0-2" target="7baba1c4bc27f4b0-3">
          <mxGeometry width="80" relative="1" as="geometry">
            <mxPoint x="50" y="120" as="sourcePoint" />
            <mxPoint x="130" y="120" as="targetPoint" />
          </mxGeometry>
        </mxCell>
        <mxCell id="KtjAfawkbh8S06eXO74y-18" value="服务发现" style="html=1;verticalAlign=bottom;endArrow=block;rounded=0;" edge="1" parent="7baba1c4bc27f4b0-2" target="7baba1c4bc27f4b0-4">
          <mxGeometry width="80" relative="1" as="geometry">
            <mxPoint x="50" y="200" as="sourcePoint" />
            <mxPoint x="130" y="200" as="targetPoint" />
          </mxGeometry>
        </mxCell>
        <mxCell id="7baba1c4bc27f4b0-3" value="权限认证中心" style="shape=umlLifeline;perimeter=lifelinePerimeter;whiteSpace=wrap;html=1;container=1;collapsible=0;recursiveResize=0;outlineConnect=0;rounded=1;shadow=0;comic=0;labelBackgroundColor=none;strokeWidth=1;fontFamily=Verdana;fontSize=12;align=center;" parent="1" vertex="1">
          <mxGeometry x="380" y="80" width="100" height="580" as="geometry" />
        </mxCell>
        <mxCell id="KtjAfawkbh8S06eXO74y-11" value="" style="html=1;points=[];perimeter=orthogonalPerimeter;" vertex="1" parent="7baba1c4bc27f4b0-3">
          <mxGeometry x="45" y="120" width="10" height="40" as="geometry" />
        </mxCell>
        <mxCell id="KtjAfawkbh8S06eXO74y-51" value="服务请求结果" style="html=1;verticalAlign=bottom;endArrow=open;dashed=1;endSize=8;rounded=0;" edge="1" parent="7baba1c4bc27f4b0-3" source="KtjAfawkbh8S06eXO74y-2">
          <mxGeometry x="-0.147" relative="1" as="geometry">
            <mxPoint x="60.68000000000001" y="380" as="sourcePoint" />
            <mxPoint x="-224.99647058823535" y="380" as="targetPoint" />
            <mxPoint as="offset" />
          </mxGeometry>
        </mxCell>
        <mxCell id="7baba1c4bc27f4b0-4" value="注册中心" style="shape=umlLifeline;perimeter=lifelinePerimeter;whiteSpace=wrap;html=1;container=1;collapsible=0;recursiveResize=0;outlineConnect=0;rounded=1;shadow=0;comic=0;labelBackgroundColor=none;strokeWidth=1;fontFamily=Verdana;fontSize=12;align=center;" parent="1" vertex="1">
          <mxGeometry x="520" y="80" width="100" height="580" as="geometry" />
        </mxCell>
        <mxCell id="KtjAfawkbh8S06eXO74y-14" value="" style="html=1;points=[];perimeter=orthogonalPerimeter;" vertex="1" parent="7baba1c4bc27f4b0-4">
          <mxGeometry x="45" y="70" width="10" height="80" as="geometry" />
        </mxCell>
        <mxCell id="KtjAfawkbh8S06eXO74y-15" value="" style="html=1;points=[];perimeter=orthogonalPerimeter;" vertex="1" parent="7baba1c4bc27f4b0-4">
          <mxGeometry x="45" y="190" width="10" height="80" as="geometry" />
        </mxCell>
        <mxCell id="KtjAfawkbh8S06eXO74y-17" value="" style="html=1;points=[];perimeter=orthogonalPerimeter;" vertex="1" parent="7baba1c4bc27f4b0-4">
          <mxGeometry x="45" y="420" width="10" height="80" as="geometry" />
        </mxCell>
        <mxCell id="KtjAfawkbh8S06eXO74y-21" value="URI地址返回" style="html=1;verticalAlign=bottom;endArrow=open;dashed=1;endSize=8;rounded=0;" edge="1" parent="7baba1c4bc27f4b0-4" target="7baba1c4bc27f4b0-2">
          <mxGeometry x="-0.147" relative="1" as="geometry">
            <mxPoint x="55" y="270" as="sourcePoint" />
            <mxPoint x="-85.67647058823536" y="270" as="targetPoint" />
            <mxPoint as="offset" />
          </mxGeometry>
        </mxCell>
        <mxCell id="KtjAfawkbh8S06eXO74y-23" value="负载均衡策略" style="html=1;verticalAlign=bottom;endArrow=block;rounded=0;" edge="1" parent="7baba1c4bc27f4b0-4" target="7baba1c4bc27f4b0-5">
          <mxGeometry width="80" relative="1" as="geometry">
            <mxPoint x="50" y="210" as="sourcePoint" />
            <mxPoint x="130" y="210" as="targetPoint" />
          </mxGeometry>
        </mxCell>
        <mxCell id="7baba1c4bc27f4b0-5" value="负载均衡组件" style="shape=umlLifeline;perimeter=lifelinePerimeter;whiteSpace=wrap;html=1;container=1;collapsible=0;recursiveResize=0;outlineConnect=0;rounded=1;shadow=0;comic=0;labelBackgroundColor=none;strokeWidth=1;fontFamily=Verdana;fontSize=12;align=center;" parent="1" vertex="1">
          <mxGeometry x="660" y="80" width="100" height="580" as="geometry" />
        </mxCell>
        <mxCell id="KtjAfawkbh8S06eXO74y-22" value="" style="html=1;points=[];perimeter=orthogonalPerimeter;" vertex="1" parent="7baba1c4bc27f4b0-5">
          <mxGeometry x="45" y="205" width="10" height="50" as="geometry" />
        </mxCell>
        <mxCell id="KtjAfawkbh8S06eXO74y-35" value="健康检查" style="html=1;verticalAlign=bottom;endArrow=block;rounded=0;entryX=-0.206;entryY=0.043;entryDx=0;entryDy=0;entryPerimeter=0;" edge="1" parent="7baba1c4bc27f4b0-5">
          <mxGeometry x="0.1745" y="3" width="80" relative="1" as="geometry">
            <mxPoint x="-85" y="429.99999999999994" as="sourcePoint" />
            <mxPoint x="178.94000000000005" y="429.99999999999994" as="targetPoint" />
            <mxPoint as="offset" />
          </mxGeometry>
        </mxCell>
        <mxCell id="7baba1c4bc27f4b0-6" value="配置中心" style="shape=umlLifeline;perimeter=lifelinePerimeter;whiteSpace=wrap;html=1;container=1;collapsible=0;recursiveResize=0;outlineConnect=0;rounded=1;shadow=0;comic=0;labelBackgroundColor=none;strokeWidth=1;fontFamily=Verdana;fontSize=12;align=center;" parent="1" vertex="1">
          <mxGeometry x="936" y="80" width="100" height="580" as="geometry" />
        </mxCell>
        <mxCell id="KtjAfawkbh8S06eXO74y-38" value="" style="html=1;points=[];perimeter=orthogonalPerimeter;" vertex="1" parent="7baba1c4bc27f4b0-6">
          <mxGeometry x="44" y="70" width="10" height="80" as="geometry" />
        </mxCell>
        <mxCell id="KtjAfawkbh8S06eXO74y-39" value="" style="html=1;points=[];perimeter=orthogonalPerimeter;" vertex="1" parent="7baba1c4bc27f4b0-6">
          <mxGeometry x="45" y="190" width="10" height="80" as="geometry" />
        </mxCell>
        <mxCell id="KtjAfawkbh8S06eXO74y-40" value="" style="html=1;points=[];perimeter=orthogonalPerimeter;" vertex="1" parent="7baba1c4bc27f4b0-6">
          <mxGeometry x="44" y="420" width="10" height="80" as="geometry" />
        </mxCell>
        <mxCell id="KtjAfawkbh8S06eXO74y-42" value="配置获取" style="html=1;verticalAlign=bottom;endArrow=block;rounded=0;" edge="1" parent="7baba1c4bc27f4b0-6">
          <mxGeometry width="80" relative="1" as="geometry">
            <mxPoint x="-90.5" y="199.54000000000002" as="sourcePoint" />
            <mxPoint x="45" y="199.54000000000002" as="targetPoint" />
          </mxGeometry>
        </mxCell>
        <mxCell id="KtjAfawkbh8S06eXO74y-43" value="配置信息" style="html=1;verticalAlign=bottom;endArrow=open;dashed=1;endSize=8;rounded=0;entryX=1.018;entryY=0.866;entryDx=0;entryDy=0;entryPerimeter=0;" edge="1" parent="7baba1c4bc27f4b0-6">
          <mxGeometry x="-0.28" relative="1" as="geometry">
            <mxPoint x="39.5" y="268.8200000000001" as="sourcePoint" />
            <mxPoint x="-89.31999999999971" y="268.8200000000001" as="targetPoint" />
            <mxPoint as="offset" />
          </mxGeometry>
        </mxCell>
        <mxCell id="KtjAfawkbh8S06eXO74y-44" value="配置获取" style="html=1;verticalAlign=bottom;endArrow=block;rounded=0;" edge="1" parent="7baba1c4bc27f4b0-6">
          <mxGeometry width="80" relative="1" as="geometry">
            <mxPoint x="-90.5" y="429.54" as="sourcePoint" />
            <mxPoint x="45" y="429.54" as="targetPoint" />
          </mxGeometry>
        </mxCell>
        <mxCell id="KtjAfawkbh8S06eXO74y-45" value="配置信息" style="html=1;verticalAlign=bottom;endArrow=open;dashed=1;endSize=8;rounded=0;entryX=1.018;entryY=0.866;entryDx=0;entryDy=0;entryPerimeter=0;" edge="1" parent="7baba1c4bc27f4b0-6">
          <mxGeometry x="-0.28" relative="1" as="geometry">
            <mxPoint x="39.5" y="498.82000000000016" as="sourcePoint" />
            <mxPoint x="-89.31999999999971" y="498.82000000000016" as="targetPoint" />
            <mxPoint as="offset" />
          </mxGeometry>
        </mxCell>
        <mxCell id="KtjAfawkbh8S06eXO74y-48" value="消息通信" style="html=1;verticalAlign=bottom;endArrow=block;rounded=0;" edge="1" parent="7baba1c4bc27f4b0-6">
          <mxGeometry width="80" relative="1" as="geometry">
            <mxPoint x="-85.5" y="310" as="sourcePoint" />
            <mxPoint x="183.5" y="310.09" as="targetPoint" />
          </mxGeometry>
        </mxCell>
        <mxCell id="7baba1c4bc27f4b0-7" value="消息组件" style="shape=umlLifeline;perimeter=lifelinePerimeter;whiteSpace=wrap;html=1;container=1;collapsible=0;recursiveResize=0;outlineConnect=0;rounded=1;shadow=0;comic=0;labelBackgroundColor=none;strokeWidth=1;fontFamily=Verdana;fontSize=12;align=center;" parent="1" vertex="1">
          <mxGeometry x="1076" y="80" width="100" height="580" as="geometry" />
        </mxCell>
        <mxCell id="KtjAfawkbh8S06eXO74y-46" value="" style="html=1;points=[];perimeter=orthogonalPerimeter;" vertex="1" parent="7baba1c4bc27f4b0-7">
          <mxGeometry x="45" y="305" width="10" height="35" as="geometry" />
        </mxCell>
        <mxCell id="7baba1c4bc27f4b0-8" value="客户机节点" style="shape=umlLifeline;perimeter=lifelinePerimeter;whiteSpace=wrap;html=1;container=1;collapsible=0;recursiveResize=0;outlineConnect=0;rounded=1;shadow=0;comic=0;labelBackgroundColor=none;strokeWidth=1;fontFamily=Verdana;fontSize=12;align=center;" parent="1" vertex="1">
          <mxGeometry x="100" y="80" width="100" height="580" as="geometry" />
        </mxCell>
        <mxCell id="7baba1c4bc27f4b0-9" value="" style="html=1;points=[];perimeter=orthogonalPerimeter;rounded=0;shadow=0;comic=0;labelBackgroundColor=none;strokeWidth=1;fontFamily=Verdana;fontSize=12;align=center;" parent="7baba1c4bc27f4b0-8" vertex="1">
          <mxGeometry x="45" y="100" width="10" height="320" as="geometry" />
        </mxCell>
        <mxCell id="7baba1c4bc27f4b0-11" value="服务请求" style="html=1;verticalAlign=bottom;endArrow=block;entryX=0;entryY=0;labelBackgroundColor=none;fontFamily=Verdana;fontSize=12;edgeStyle=elbowEdgeStyle;elbow=vertical;" parent="1" source="7baba1c4bc27f4b0-9" edge="1">
          <mxGeometry relative="1" as="geometry">
            <mxPoint x="220" y="190" as="sourcePoint" />
            <mxPoint x="285" y="180" as="targetPoint" />
          </mxGeometry>
        </mxCell>
        <mxCell id="KtjAfawkbh8S06eXO74y-1" value="链路追踪组件" style="shape=umlLifeline;perimeter=lifelinePerimeter;whiteSpace=wrap;html=1;container=1;collapsible=0;recursiveResize=0;outlineConnect=0;rounded=1;shadow=0;comic=0;labelBackgroundColor=none;strokeWidth=1;fontFamily=Verdana;fontSize=12;align=center;size=40;" vertex="1" parent="1">
          <mxGeometry x="1200" y="80" width="100" height="580" as="geometry" />
        </mxCell>
        <mxCell id="KtjAfawkbh8S06eXO74y-47" value="" style="html=1;points=[];perimeter=orthogonalPerimeter;" vertex="1" parent="KtjAfawkbh8S06eXO74y-1">
          <mxGeometry x="45" y="340" width="10" height="45" as="geometry" />
        </mxCell>
        <mxCell id="KtjAfawkbh8S06eXO74y-2" value="服务集群" style="shape=umlLifeline;perimeter=lifelinePerimeter;whiteSpace=wrap;html=1;container=1;collapsible=0;recursiveResize=0;outlineConnect=0;rounded=1;shadow=0;comic=0;labelBackgroundColor=none;strokeWidth=1;fontFamily=Verdana;fontSize=12;align=center;" vertex="1" parent="1">
          <mxGeometry x="796" y="80" width="100" height="580" as="geometry" />
        </mxCell>
        <mxCell id="KtjAfawkbh8S06eXO74y-25" value="" style="html=1;points=[];perimeter=orthogonalPerimeter;" vertex="1" parent="KtjAfawkbh8S06eXO74y-2">
          <mxGeometry x="45" y="70" width="10" height="80" as="geometry" />
        </mxCell>
        <mxCell id="KtjAfawkbh8S06eXO74y-28" value="" style="html=1;points=[];perimeter=orthogonalPerimeter;" vertex="1" parent="KtjAfawkbh8S06eXO74y-2">
          <mxGeometry x="45" y="190" width="10" height="80" as="geometry" />
        </mxCell>
        <mxCell id="KtjAfawkbh8S06eXO74y-29" value="" style="html=1;points=[];perimeter=orthogonalPerimeter;" vertex="1" parent="KtjAfawkbh8S06eXO74y-2">
          <mxGeometry x="45" y="305" width="10" height="80" as="geometry" />
        </mxCell>
        <mxCell id="KtjAfawkbh8S06eXO74y-30" value="" style="html=1;points=[];perimeter=orthogonalPerimeter;" vertex="1" parent="KtjAfawkbh8S06eXO74y-2">
          <mxGeometry x="45" y="420" width="10" height="80" as="geometry" />
        </mxCell>
        <mxCell id="KtjAfawkbh8S06eXO74y-37" value="配置获取" style="html=1;verticalAlign=bottom;endArrow=block;rounded=0;" edge="1" parent="KtjAfawkbh8S06eXO74y-2" target="7baba1c4bc27f4b0-6">
          <mxGeometry width="80" relative="1" as="geometry">
            <mxPoint x="54" y="70" as="sourcePoint" />
            <mxPoint x="134" y="70" as="targetPoint" />
          </mxGeometry>
        </mxCell>
        <mxCell id="KtjAfawkbh8S06eXO74y-13" value="认证token" style="html=1;verticalAlign=bottom;endArrow=open;dashed=1;endSize=8;rounded=0;" edge="1" parent="1" target="7baba1c4bc27f4b0-2">
          <mxGeometry x="-0.147" relative="1" as="geometry">
            <mxPoint x="430" y="240" as="sourcePoint" />
            <mxPoint x="350" y="240" as="targetPoint" />
            <mxPoint as="offset" />
          </mxGeometry>
        </mxCell>
        <mxCell id="KtjAfawkbh8S06eXO74y-24" value="策略结果" style="html=1;verticalAlign=bottom;endArrow=open;dashed=1;endSize=8;rounded=0;entryX=1.041;entryY=0.766;entryDx=0;entryDy=0;entryPerimeter=0;" edge="1" parent="1" source="KtjAfawkbh8S06eXO74y-22" target="KtjAfawkbh8S06eXO74y-15">
          <mxGeometry x="-0.147" relative="1" as="geometry">
            <mxPoint x="585" y="360" as="sourcePoint" />
            <mxPoint x="299.32352941176464" y="360" as="targetPoint" />
            <mxPoint as="offset" />
          </mxGeometry>
        </mxCell>
        <mxCell id="KtjAfawkbh8S06eXO74y-31" value="动态路由信息" style="html=1;verticalAlign=bottom;endArrow=open;dashed=1;endSize=8;rounded=0;" edge="1" parent="1">
          <mxGeometry x="-0.147" relative="1" as="geometry">
            <mxPoint x="290" y="370" as="sourcePoint" />
            <mxPoint x="150" y="370" as="targetPoint" />
            <mxPoint as="offset" />
          </mxGeometry>
        </mxCell>
        <mxCell id="KtjAfawkbh8S06eXO74y-32" value="服务请求" style="html=1;verticalAlign=bottom;endArrow=block;rounded=0;" edge="1" parent="1" target="KtjAfawkbh8S06eXO74y-2">
          <mxGeometry width="80" relative="1" as="geometry">
            <mxPoint x="150.25" y="400" as="sourcePoint" />
            <mxPoint x="429.75" y="400" as="targetPoint" />
          </mxGeometry>
        </mxCell>
        <mxCell id="KtjAfawkbh8S06eXO74y-33" value="健康检查" style="html=1;verticalAlign=bottom;endArrow=block;rounded=0;entryX=-0.206;entryY=0.043;entryDx=0;entryDy=0;entryPerimeter=0;" edge="1" parent="1" source="KtjAfawkbh8S06eXO74y-14" target="KtjAfawkbh8S06eXO74y-25">
          <mxGeometry x="0.1745" y="3" width="80" relative="1" as="geometry">
            <mxPoint x="740" y="180" as="sourcePoint" />
            <mxPoint x="820" y="180" as="targetPoint" />
            <mxPoint as="offset" />
          </mxGeometry>
        </mxCell>
        <mxCell id="KtjAfawkbh8S06eXO74y-34" value="Alive" style="html=1;verticalAlign=bottom;endArrow=open;dashed=1;endSize=8;rounded=0;" edge="1" parent="1">
          <mxGeometry x="-0.28" relative="1" as="geometry">
            <mxPoint x="852.8399999999999" y="580" as="sourcePoint" />
            <mxPoint x="567.1635294117646" y="580" as="targetPoint" />
            <mxPoint as="offset" />
          </mxGeometry>
        </mxCell>
        <mxCell id="KtjAfawkbh8S06eXO74y-36" value="Alive" style="html=1;verticalAlign=bottom;endArrow=open;dashed=1;endSize=8;rounded=0;" edge="1" parent="1">
          <mxGeometry x="-0.28" relative="1" as="geometry">
            <mxPoint x="840" y="230" as="sourcePoint" />
            <mxPoint x="577.1635294117646" y="230" as="targetPoint" />
            <mxPoint as="offset" />
          </mxGeometry>
        </mxCell>
        <mxCell id="KtjAfawkbh8S06eXO74y-41" value="配置信息" style="html=1;verticalAlign=bottom;endArrow=open;dashed=1;endSize=8;rounded=0;entryX=1.018;entryY=0.866;entryDx=0;entryDy=0;entryPerimeter=0;" edge="1" parent="1" source="KtjAfawkbh8S06eXO74y-38" target="KtjAfawkbh8S06eXO74y-25">
          <mxGeometry x="-0.28" relative="1" as="geometry">
            <mxPoint x="872.8400000000001" y="240" as="sourcePoint" />
            <mxPoint x="587.1635294117646" y="240" as="targetPoint" />
            <mxPoint as="offset" />
          </mxGeometry>
        </mxCell>
        <mxCell id="KtjAfawkbh8S06eXO74y-49" value="通信结果" style="html=1;verticalAlign=bottom;endArrow=open;dashed=1;endSize=8;rounded=0;entryX=1.018;entryY=0.866;entryDx=0;entryDy=0;entryPerimeter=0;" edge="1" parent="1" source="7baba1c4bc27f4b0-7">
          <mxGeometry x="-0.28" relative="1" as="geometry">
            <mxPoint x="978.82" y="420.00000000000017" as="sourcePoint" />
            <mxPoint x="850.0000000000003" y="420.00000000000017" as="targetPoint" />
            <mxPoint as="offset" />
          </mxGeometry>
        </mxCell>
        <mxCell id="KtjAfawkbh8S06eXO74y-50" value="服务调用日志" style="html=1;verticalAlign=bottom;endArrow=block;rounded=0;" edge="1" parent="1" target="KtjAfawkbh8S06eXO74y-1">
          <mxGeometry width="80" relative="1" as="geometry">
            <mxPoint x="851.5" y="450" as="sourcePoint" />
            <mxPoint x="1120.5" y="450.0899999999999" as="targetPoint" />
          </mxGeometry>
        </mxCell>
      </root>
    </mxGraphModel>
  </diagram>
</mxfile>
